<?xml version="1.0" encoding="UTF-8"?>
<!DOCTYPE svg PUBLIC "-//W3C//DTD SVG 1.1//EN" "http://www.w3.org/Graphics/SVG/1.1/DTD/svg11.dtd">
<!-- Creator: CorelDRAW 2021 (64-Bit) -->
<svg xmlns="http://www.w3.org/2000/svg" xml:space="preserve" width="51.4793mm" height="22.0661mm" version="1.1" style="shape-rendering:geometricPrecision; text-rendering:geometricPrecision; image-rendering:optimizeQuality; fill-rule:evenodd; clip-rule:evenodd"
viewBox="0 0 3024.8 1296.55"
 xmlns:xlink="http://www.w3.org/1999/xlink"
 xmlns:xodm="http://www.corel.com/coreldraw/odm/2003">
 <defs>
  <style type="text/css">
   <![CDATA[
    .fil0 {fill:#0032FE;fill-rule:nonzero}
    .fil2 {fill:#0032FE;fill-rule:nonzero}
    .fil1 {fill:#EA580C;fill-rule:nonzero}
   ]]>
  </style>
 </defs>
 <g id="Capa_x0020_1">
  <metadata id="CorelCorpID_0Corel-Layer"/>
  <g id="_2226355252384">
   <path class="fil0" d="M39.39 575.07l104.05 0 -33.83 192.48 0 3.21c0,7.07 2.57,13.49 7.49,18.84 5.14,5.35 11.13,8.13 18.2,8.13l57.81 0c9.2,0 17.56,-3 25.05,-8.77 7.92,-6.21 12.84,-13.71 14.56,-22.48l22.48 -126.75c0.85,-3.85 1.28,-7.7 1.28,-11.99 0,-16.7 -7.49,-38.33 -22.48,-65.09 -6.2,-11.35 -23.98,-44.53 -53.09,-99.13 -32.33,-61.45 -51.17,-96.99 -56.1,-106.62 -15.84,-31.47 -23.77,-62.09 -23.77,-92.28 0,-1.71 0,-3.43 0,-5.56 0,-7.07 0.43,-14.56 1.29,-22.05l26.98 -155.44c4.28,-23.55 15.85,-42.82 35.11,-58.45 18.41,-15.41 39.61,-23.12 63.38,-23.12l150.51 0c21.84,0 40.68,7.92 56.52,23.77 16.27,15.84 24.41,35.54 24.41,58.88 0,5.56 -0.43,9.85 -1.29,13.27l-39.39 220.74 -105.55 0 33.4 -185.63c0.86,-1.29 1.07,-3 1.07,-5.14 0,-6.21 -2.57,-11.99 -8.13,-17.56 -5.35,-4.5 -11.56,-6.85 -18.63,-6.85l-57.81 0c-8.99,0 -17.13,3 -24.19,8.78 -7.07,5.35 -11.35,12.42 -13.06,20.76l-17.99 99.56c-0.85,7.7 -1.28,15.41 -1.28,23.33 0,29.33 9.63,59.52 28.69,90.99 71.3,116.48 108.55,182.63 111.76,198.04 10.92,20.13 16.27,41.96 16.27,65.94 -0.43,10.92 -1.71,22.27 -3.85,34.47l-32.11 173.63c-4.28,23.55 -15.85,43.03 -34.68,59.09 -19.06,15.41 -40.47,23.12 -64.87,23.12l-149.87 0c-22.27,0 -40.9,-7.92 -55.88,-23.77 -14.55,-15.84 -21.83,-35.33 -21.83,-58.23l0 -14.55 39.39 -227.59zm507.42 -575.07l104.05 0 -138.09 768.83 0 3.21c0,7.06 2.36,13.49 6.85,18.84 5.56,5.35 11.78,8.14 18.84,8.14l57.81 0c21.83,0 34.68,-10.49 38.32,-31.26l139.38 -767.76 106.84 0 -150.08 818.29c-4.28,23.13 -15.63,42.18 -34.47,57.81 -18.84,15.41 -40.46,23.12 -64.66,23.12l-151.37 0c-21.41,0 -39.83,-7.92 -55.24,-23.77 -15.63,-15.84 -23.34,-34.9 -23.34,-57.17l0 -15.62 145.16 -802.66zm243.43 899.22l161.22 -899.22 241.51 0c21.84,0 40.68,7.92 56.52,23.77 15.85,15.41 24.2,34.47 25.05,57.17 -0.43,1.93 -1.29,7.06 -2.57,14.98l-50.1 283.26c-7.06,39.18 -30.4,64.23 -69.58,75.15 14.55,5.35 25.69,14.99 33.19,28.9 5.78,10.92 8.78,22.91 8.78,36.4 0,2.78 -0.22,5.99 -0.65,9.42 0,6.21 -0.21,11.13 -0.64,14.34l-65.3 355.84 -110.26 0 65.73 -368.04 0 -3.21c0,-7.07 -2.36,-13.06 -7.49,-18.2 -4.92,-4.92 -11.13,-7.5 -18.2,-7.5l-87.14 0 -70.23 396.94 -109.84 0zm199.12 -504.85l87.14 0c9.21,0 17.34,-3.21 24.41,-9.42 6.85,-5.78 10.92,-13.06 12.63,-21.83l42.61 -232.3 0 -3.64c0,-7.49 -2.57,-13.7 -7.5,-18.84 -5.35,-4.5 -11.99,-6.85 -19.48,-6.85l-86.49 0 -53.31 292.89z"/>
   <path class="fil1" d="M1553.29 0l236.79 0c22.05,0 41.11,8.14 56.95,24.41 15.63,15.42 23.34,33.19 23.34,53.31 0,5.35 -0.64,11.35 -1.93,17.99l-57.81 318.15c-4.07,23.77 -15.41,43.46 -33.83,58.88 -18.41,15.41 -39.61,23.12 -63.38,23.12l-141.31 0 -73.65 403.37 -108.55 0 163.36 -899.22zm123.53 394.38c9.21,0 17.35,-3 24.41,-8.78 6.85,-5.35 10.92,-12.42 12.63,-21.2l44.53 -233.58 0 -3.64c0,-7.49 -2.57,-13.7 -7.49,-18.84 -5.14,-4.5 -11.13,-6.85 -18.2,-6.85l-89.71 0 -54.59 292.89 88.42 0zm283.25 -394.38l244.07 0 -17.55 100.2 -135.53 0 -50.74 285.18 134.88 0 -18.84 100.2 -134.24 0 -55.88 313.44 132.96 0 -18.2 100.2 -244.07 0 163.14 -899.22zm157.36 899.22l161.22 -899.22 241.51 0c21.84,0 40.68,7.92 56.52,23.77 15.85,15.41 24.2,34.47 25.05,57.17 -0.43,1.93 -1.29,7.06 -2.57,14.98l-50.1 283.26c-7.06,39.18 -30.4,64.23 -69.58,75.15 14.55,5.35 25.69,14.99 33.19,28.9 5.78,10.92 8.78,22.91 8.78,36.4 0,2.78 -0.22,5.99 -0.65,9.42 0,6.21 -0.21,11.13 -0.64,14.34l-65.3 355.84 -110.26 0 65.73 -368.04 0 -3.21c0,-7.07 -2.36,-13.06 -7.49,-18.2 -4.92,-4.92 -11.13,-7.5 -18.2,-7.5l-87.14 0 -70.23 396.94 -109.84 0zm199.12 -504.85l87.14 0c9.21,0 17.34,-3.21 24.41,-9.42 6.85,-5.78 10.92,-13.06 12.63,-21.83l42.61 -232.3 0 -3.64c0,-7.49 -2.57,-13.7 -7.5,-18.84 -5.35,-4.5 -11.99,-6.85 -19.48,-6.85l-86.49 0 -53.31 292.89zm374.24 -394.38l104.05 0 -138.09 768.83 0 3.21c0,7.06 2.36,13.49 6.85,18.84 5.56,5.35 11.78,8.14 18.84,8.14l57.81 0c21.83,0 34.68,-10.49 38.32,-31.26l139.38 -767.76 106.84 0 -150.08 818.29c-4.28,23.13 -15.63,42.18 -34.47,57.81 -18.84,15.41 -40.46,23.12 -64.66,23.12l-151.37 0c-21.41,0 -39.83,-7.92 -55.24,-23.77 -15.63,-15.84 -23.34,-34.9 -23.34,-57.17l0 -15.62 145.16 -802.66z"/>
   <path class="fil2" d="M1330.26 1296.55l94.58 -286.61 34.39 0 -9.01 286.61 -32.55 0 2.39 -47.09 -39.24 0 -13.99 47.09 -36.58 0zm91.37 -79.43l6.42 -126.93 -37.6 126.93 31.19 0zm195.79 79.43l51.99 -286.61 77.8 0 -5.59 32.35 -43.2 0 -16.17 90.49 42.99 0 -6.01 31.94 -42.79 0 -23.61 131.84 -35.41 0zm257.75 -26.21l0 -4.98 41.15 -229.42c1.3,-7.5 4.98,-13.65 10.99,-18.63 6.01,-4.92 12.69,-7.37 20.13,-7.37l48.52 0c6.96,0 12.9,2.53 17.81,7.57 5.05,5.05 7.57,11.26 7.57,18.63 0,1.84 -0.14,3.27 -0.41,4.37l-41.15 229.84c-1.29,7.51 -5.05,13.72 -11.12,18.84 -6.01,4.91 -12.83,7.37 -20.4,7.37l-47.7 0c-7.1,0 -13.1,-2.53 -18.02,-7.57 -4.91,-5.19 -7.37,-11.4 -7.37,-18.63zm34.94 -15.76l0 1.03c0,2.25 0.82,4.23 2.39,6.01 1.64,1.7 3.62,2.59 6.01,2.59l18.43 0c6.89,0 10.99,-3.34 12.15,-10.03l36.58 -202.47 0 -1.23c0,-2.39 -0.75,-4.37 -2.39,-6.01 -1.57,-1.43 -3.62,-2.19 -6.01,-2.19l-18.56 0c-2.8,0 -5.39,0.96 -7.78,2.8 -2.32,1.71 -3.68,3.96 -4.23,6.62l-36.58 202.88zm244.1 10.78l41.15 -229.42c1.3,-7.5 4.98,-13.65 10.99,-18.63 6.01,-4.92 12.69,-7.37 20.13,-7.37l48.52 0c6.96,0 12.9,2.53 17.81,7.57 5.05,5.05 7.57,11.26 7.57,18.56 0,1.92 -0.14,3.34 -0.41,4.44l-12.76 71.38 -33.17 0 10.78 -60.19 0 -1.23c0,-2.39 -0.82,-4.37 -2.39,-6.01 -1.57,-1.43 -3.62,-2.19 -6.01,-2.19l-18.56 0c-2.8,0 -5.39,0.96 -7.78,2.8 -2.25,1.71 -3.68,3.96 -4.17,6.62l-36.58 202.88 0 1.03c0,2.25 0.82,4.23 2.39,6.01 1.64,1.7 3.61,2.59 6.01,2.59l18.36 0c6.96,0 10.99,-3.34 12.22,-9.97l10.78 -59.98 33.3 0 -13.58 76.16c-1.29,7.44 -5.05,13.71 -11.12,18.77 -6.01,4.91 -12.83,7.37 -20.4,7.37l-47.7 0c-7.1,0 -13.1,-2.53 -18.02,-7.57 -4.91,-5.19 -7.37,-11.4 -7.37,-18.63l0 -4.98zm266.35 31.19l94.58 -286.61 34.39 0 -9.01 286.61 -32.55 0 2.39 -47.09 -39.24 0 -13.99 47.09 -36.58 0zm91.37 -79.43l6.42 -126.93 -37.6 126.93 31.19 0zm213.81 79.43l46.4 -254.27 -24.63 0 5.8 -32.35 83.39 0 -6.21 32.35 -23.75 0 -45.99 254.27 -35.01 0z"/>
  </g>
 </g>
</svg>
